<?xml version="1.0" encoding="UTF-8"?>
<!--Generator: Apple Native CoreSVG 175.5-->
<!DOCTYPE svg
PUBLIC "-//W3C//DTD SVG 1.1//EN"
       "http://www.w3.org/Graphics/SVG/1.1/DTD/svg11.dtd">
<svg version="1.1" xmlns="http://www.w3.org/2000/svg" xmlns:xlink="http://www.w3.org/1999/xlink" width="19.9512" height="18.4668">
 <g>
  <rect height="18.4668" opacity="0" width="19.9512" x="0" y="0"/>
  <path d="M4.17969 18.4375L15.7812 18.4375C18.0957 18.4375 19.9512 16.8164 19.9512 14.4238C19.9512 12.0312 18.0957 10.4102 15.7812 10.4102L4.17969 10.4102C1.86523 10.4102 0 12.0312 0 14.4238C0 16.8164 1.86523 18.4375 4.17969 18.4375ZM16.0254 16.9629C14.6191 16.9531 13.4961 15.8203 13.4961 14.4141C13.4961 13.0176 14.6191 11.8848 16.0254 11.8848C17.4316 11.8848 18.5742 13.0078 18.5645 14.4043C18.5547 15.8203 17.4316 16.9727 16.0254 16.9629ZM4.58008 8.90625L15.3809 8.90625C17.9004 8.90625 19.9512 7.10938 19.9512 4.45312C19.9512 1.79688 17.9004 0 15.3809 0L4.58008 0C2.06055 0 0 1.79688 0 4.45312C0 7.10938 2.06055 8.90625 4.58008 8.90625ZM4.58008 7.43164C2.93945 7.43164 1.47461 6.23047 1.47461 4.45312C1.47461 2.67578 2.93945 1.47461 4.58008 1.47461L15.3809 1.47461C17.0117 1.47461 18.4766 2.67578 18.4766 4.45312C18.4766 6.23047 17.0117 7.43164 15.3809 7.43164ZM4.58008 6.76758C5.86914 6.77734 6.89453 5.72266 6.9043 4.43359C6.91406 3.1543 5.86914 2.12891 4.58008 2.12891C3.29102 2.12891 2.26562 3.16406 2.26562 4.44336C2.26562 5.73242 3.29102 6.75781 4.58008 6.76758Z" fill="#000000"/>
 </g>
</svg>
